<svg width="117" height="117" viewBox="0 0 117 117" fill="none" xmlns="http://www.w3.org/2000/svg">
<path opacity="0.4" d="M82.1074 0H101.859C110.039 0 116.667 6.68414 116.667 14.9331V34.8514C116.667 43.1004 110.039 49.7845 101.859 49.7845H82.1074C73.9275 49.7845 67.2993 43.1004 67.2993 34.8514V14.9331C67.2993 6.68414 73.9275 0 82.1074 0Z" fill="#A19F9D"/>
<path d="M34.5595 66.8822C42.7394 66.8822 49.3676 73.5663 49.3676 81.8153V101.734C49.3676 109.977 42.7394 116.667 34.5595 116.667H14.8081C6.62816 116.667 0 109.977 0 101.734V81.8153C0 73.5663 6.62816 66.8822 14.8081 66.8822H34.5595ZM101.859 66.8822C110.039 66.8822 116.667 73.5663 116.667 81.8153V101.734C116.667 109.977 110.039 116.667 101.859 116.667H82.1071C73.9272 116.667 67.2991 109.977 67.2991 101.734V81.8153C67.2991 73.5663 73.9272 66.8822 82.1071 66.8822H101.859ZM34.5595 0C42.7394 0 49.3676 6.68414 49.3676 14.9331V34.8514C49.3676 43.1004 42.7394 49.7845 34.5595 49.7845H14.8081C6.62816 49.7845 0 43.1004 0 34.8514V14.9331C0 6.68414 6.62816 0 14.8081 0H34.5595Z" fill="#A19F9D"/>
</svg>
