<svg width="110" height="99" viewBox="0 0 110 99" fill="none" xmlns="http://www.w3.org/2000/svg">
<path d="M40.1916 64.8477C18.5146 64.8477 0 68.196 0 81.58C0 94.9745 18.3969 98.4378 40.1916 98.4378C61.8687 98.4378 80.3836 95.09 80.3836 81.706C80.3836 68.3115 61.9865 64.8477 40.1916 64.8477Z" fill="#A19F9D"/>
<path opacity="0.4" d="M40.1938 52.0888C54.9573 52.0888 66.7884 40.5025 66.7884 26.0445C66.7884 11.5864 54.9573 0 40.1938 0C25.4356 0 13.5991 11.5864 13.5991 26.0445C13.5991 40.5025 25.4356 52.0888 40.1938 52.0888Z" fill="#A19F9D"/>
<path opacity="0.4" d="M77.5098 26.5162C77.5098 33.8788 75.2515 40.749 71.2916 46.4557C70.8796 47.0426 71.2434 47.8339 71.9605 47.9597C72.9554 48.1221 73.9775 48.2217 75.0213 48.2427C85.4023 48.5099 94.7184 41.9647 97.2927 32.1077C101.108 17.4819 89.9129 4.34961 75.6531 4.34961C74.1061 4.34961 72.6238 4.50685 71.1792 4.79507C70.9812 4.83698 70.7672 4.93131 70.6601 5.09896C70.521 5.31386 70.6227 5.59158 70.7618 5.77498C75.0484 11.6599 77.5098 18.8234 77.5098 26.5162Z" fill="#A19F9D"/>
<path d="M108.168 66.5466C106.268 62.5797 101.682 59.8599 94.7049 58.5236C91.4131 57.7376 82.4986 56.6215 74.2098 56.7786C74.0873 56.7944 74.0173 56.8782 74.0068 56.9306C73.991 57.0144 74.0277 57.1403 74.1887 57.2293C78.0195 59.0844 92.8262 67.1544 90.9642 84.1749C90.8837 84.9195 91.4884 85.5477 92.2426 85.4436C95.887 84.9352 105.262 82.9595 108.168 76.8179C109.779 73.569 109.779 69.796 108.168 66.5466Z" fill="#A19F9D"/>
</svg>
