<svg width="111" height="117" viewBox="0 0 111 117" fill="none" xmlns="http://www.w3.org/2000/svg">
<path d="M38.7551 109.562V91.6723C38.755 87.1389 42.4414 83.4558 47.0075 83.4273H63.7736C68.3601 83.4273 72.0782 87.1187 72.0782 91.6723V109.51C72.0781 113.442 75.2735 116.638 79.2338 116.667H90.6723C96.0145 116.68 101.143 114.583 104.925 110.837C108.708 107.092 110.833 102.006 110.833 96.7022V45.8841C110.833 41.5998 108.92 37.5358 105.61 34.7871L66.7507 3.93323C59.958 -1.46345 50.2563 -1.28912 43.6648 4.34807L5.6409 34.7871C2.17432 37.4548 0.102388 41.5308 0 45.8841V96.6504C0 107.705 9.02639 116.667 20.161 116.667H31.3384C33.2452 116.68 35.0787 115.938 36.4319 114.604C37.7852 113.27 38.5462 111.455 38.5462 109.562H38.7551Z" fill="#A19F9D"/>
</svg>
